<svg width="32" height="32" viewBox="0 0 32 32" fill="none" xmlns="http://www.w3.org/2000/svg">
<path fill-rule="evenodd" clip-rule="evenodd" d="M16 4.87665C9.9225 4.87665 5 9.79915 5 15.8767C5 20.7442 8.14875 24.8554 12.5212 26.3129C13.0712 26.4092 13.2775 26.0792 13.2775 25.7904C13.2775 25.5292 13.2638 24.6629 13.2638 23.7417C10.5 24.2504 9.785 23.0679 9.565 22.4492C9.44125 22.1329 8.905 21.1567 8.4375 20.8954C8.0525 20.6892 7.5025 20.1804 8.42375 20.1667C9.29 20.1529 9.90875 20.9642 10.115 21.2942C11.105 22.9579 12.6863 22.4904 13.3188 22.2017C13.415 21.4867 13.7037 21.0054 14.02 20.7304C11.5725 20.4554 9.015 19.5067 9.015 15.2992C9.015 14.1029 9.44125 13.1129 10.1425 12.3429C10.0325 12.0679 9.6475 10.9404 10.2525 9.4279C10.2525 9.4279 11.1738 9.13915 13.2775 10.5554C14.1575 10.3079 15.0925 10.1842 16.0275 10.1842C16.9625 10.1842 17.8975 10.3079 18.7775 10.5554C20.8813 9.1254 21.8025 9.4279 21.8025 9.4279C22.4075 10.9404 22.0225 12.0679 21.9125 12.3429C22.6138 13.1129 23.04 14.0892 23.04 15.2992C23.04 19.5204 20.4688 20.4554 18.0213 20.7304C18.42 21.0742 18.7638 21.7342 18.7638 22.7654C18.7638 24.2367 18.75 25.4192 18.75 25.7904C18.75 26.0792 18.9563 26.4229 19.5063 26.3129C23.8513 24.8554 27 20.7304 27 15.8767C27 9.79915 22.0775 4.87665 16 4.87665Z" fill="#0052a5" style="fill:#0052a5;fill-opacity:1;"/>
</svg>
