<svg width="32" height="32" viewBox="0 0 32 32" fill="none" xmlns="http://www.w3.org/2000/svg">
<path fill-rule="evenodd" clip-rule="evenodd" d="M26 26H21.8906V19.0008C21.8906 17.0818 21.1615 16.0094 19.6426 16.0094C17.9902 16.0094 17.127 17.1254 17.127 19.0008V26H13.1667V12.6667H17.127V14.4627C17.127 14.4627 18.3177 12.2593 21.1471 12.2593C23.9753 12.2593 26 13.9863 26 17.5582V26ZM8.44206 10.9208C7.0931 10.9208 6 9.8191 6 8.46039C6 7.10168 7.0931 6 8.44206 6C9.79102 6 10.8835 7.10168 10.8835 8.46039C10.8835 9.8191 9.79102 10.9208 8.44206 10.9208ZM6.39714 26H10.5267V12.6667H6.39714V26Z" fill="#0052a5" style="fill:#0052a5;fill-opacity:1;"/>
</svg>
