<svg width="43" height="27" viewBox="0 0 43 27" fill="none" xmlns="http://www.w3.org/2000/svg">
<path d="M40.6619 10.9108C42.117 11.484 42.7049 12.3658 42.7049 13.6592C42.7049 14.8791 42.1611 15.7169 40.6619 16.3342L31.0203 21.2873C30.6676 21.4342 30.4324 21.5224 30.065 21.5224C29.0214 21.5224 28.2719 20.7434 28.2719 19.6558C28.2719 18.7887 28.8157 18.142 29.8298 17.8039L38.8247 13.6739V13.5122L29.8151 9.5145C28.801 9.20585 28.2572 8.57385 28.2572 7.692C28.2572 6.60438 28.9921 5.8695 30.0797 5.8695C30.4324 5.8695 30.6823 5.94299 31.0056 6.07527L40.6619 10.9108Z" fill="black" style="fill:black;fill-opacity:1;"/>
<path d="M19.8943 24.9763C19.6738 25.7406 19.0271 26.2109 18.2334 26.2109C17.2781 26.2109 16.5285 25.4467 16.5579 24.5354C16.5579 24.3296 16.602 24.0798 16.6461 23.9622L22.9954 1.44553C23.2012 0.68126 23.8479 0.210938 24.6416 0.210938C25.6116 0.210938 26.3465 0.975211 26.3318 1.88646C26.3171 2.10692 26.273 2.34209 26.2289 2.47436L19.8943 24.9763Z" fill="black" style="fill:black;fill-opacity:1;"/>
<path d="M2.21308 10.9108L11.8694 6.07527C12.1927 5.94299 12.4279 5.8695 12.7953 5.8695C13.883 5.8695 14.6178 6.60438 14.6178 7.692C14.6178 8.57385 14.074 9.20585 13.0599 9.5145L4.05028 13.5122V13.6739L13.0452 17.8039C14.0593 18.142 14.6031 18.7887 14.6031 19.6558C14.6031 20.7434 13.8536 21.5224 12.81 21.5224C12.4426 21.5224 12.2074 21.4342 11.8547 21.2873L2.21308 16.3342C0.71393 15.7169 0.17012 14.8791 0.17012 13.6592C0.17012 12.3658 0.758023 11.484 2.21308 10.9108Z" fill="black" style="fill:black;fill-opacity:1;"/>
</svg>
