<svg width="32" height="32" viewBox="0 0 32 32" fill="none" xmlns="http://www.w3.org/2000/svg">
<path d="M7.66627 6.00244H24.3337C25.2548 6.00244 26 6.74762 26 7.6687V24.3362C26.0006 24.5552 25.958 24.7721 25.8745 24.9746C25.791 25.177 25.6682 25.361 25.5134 25.5158C25.3585 25.6707 25.1746 25.7934 24.9721 25.8769C24.7697 25.9604 24.5527 26.0031 24.3337 26.0024H7.66627C7.44727 26.0031 7.2303 25.9604 7.02785 25.8769C6.8254 25.7934 6.64146 25.6707 6.4866 25.5158C6.33175 25.361 6.20904 25.177 6.12553 24.9746C6.04202 24.7721 5.99936 24.5552 6.00001 24.3362V7.66626C6.00001 6.74517 6.74518 6.00244 7.66627 6.00244ZM20.3855 12.345V10.5859H11.6145V12.345H14.9299V21.4214H17.0555V12.345H20.3855Z" fill="#800080" style="fill:#800080;fill:color(display-p3 0.5020 0.0000 0.5020);fill-opacity:1;"/>
</svg>
