<svg width="24" height="24" viewBox="0 0 24 24" fill="none" xmlns="http://www.w3.org/2000/svg">
<rect width="24" height="24" rx="12" fill="white" style="fill:white;fill-opacity:1;"/>
<path fill-rule="evenodd" clip-rule="evenodd" d="M18 17.5H15.5344V13.3005C15.5344 12.1491 15.0969 11.5057 14.1855 11.5057C13.1941 11.5057 12.6762 12.1753 12.6762 13.3005V17.5H10.3V9.5H12.6762V10.5776C12.6762 10.5776 13.3906 9.25559 15.0883 9.25559C16.7852 9.25559 18 10.2918 18 12.4349V17.5ZM7.46523 8.45246C6.65586 8.45246 6 7.79146 6 6.97623C6 6.16101 6.65586 5.5 7.46523 5.5C8.27461 5.5 8.93008 6.16101 8.93008 6.97623C8.93008 7.79146 8.27461 8.45246 7.46523 8.45246ZM6.23828 17.5H8.71602V9.5H6.23828V17.5Z" fill="#444444" style="fill:#444444;fill:color(display-p3 0.2667 0.2667 0.2667);fill-opacity:1;"/>
</svg>
