<svg width="24" height="24" viewBox="0 0 24 24" fill="none" xmlns="http://www.w3.org/2000/svg">
<rect width="24" height="24" rx="12" fill="white" style="fill:white;fill-opacity:1;"/>
<path d="M19.6654 8.2491C19.4811 7.56026 18.9397 7.01893 18.2509 6.83454C17.0036 6.5 12 6.5 12 6.5C12 6.5 6.99637 6.5 5.74909 6.83454C5.06026 7.01893 4.51893 7.56026 4.33454 8.2491C4 9.49637 4 12.1003 4 12.1003C4 12.1003 4 14.7042 4.33454 15.9514C4.51893 16.6403 5.06026 17.1816 5.74909 17.366C6.99637 17.7005 12 17.7005 12 17.7005C12 17.7005 17.0036 17.7005 18.2509 17.366C18.9397 17.1816 19.4811 16.6403 19.6654 15.9514C20 14.7042 20 12.1003 20 12.1003C20 12.1003 19.9987 9.49637 19.6654 8.2491Z" fill="#444444" style="fill:#444444;fill:color(display-p3 0.2667 0.2667 0.2667);fill-opacity:1;"/>
<path d="M10.3985 14.5002L14.5552 12.1005L10.3985 9.70074V14.5002Z" fill="white" style="fill:white;fill-opacity:1;"/>
</svg>
